# 3ds Max Wavefront OBJ Exporter v0.97b - (c)2007 guruware
# 创建的文件:18.02.2019 17:05:51

#
# object Car_09
#

v  25.6907 2.3734 -15.0233
v  25.7435 2.0735 -15.0233
v  24.8665 2.0735 -15.0233
v  25.6907 2.3734 -14.5173
v  25.7435 2.0735 -14.5173
v  24.8665 2.0735 -14.5173
v  25.5384 2.6372 -15.0233
v  25.5384 2.6372 -14.5173
v  25.3050 2.8330 -15.0233
v  25.3050 2.8330 -14.5173
v  25.0188 2.9372 -15.0233
v  25.0188 2.9372 -14.5173
v  24.7142 2.9372 -15.0233
v  24.7142 2.9372 -14.5173
v  24.4280 2.8330 -15.0233
v  24.4280 2.8330 -14.5173
v  24.1947 2.6372 -15.0233
v  24.1947 2.6372 -14.5173
v  24.0424 2.3734 -15.0233
v  24.0424 2.3734 -14.5173
v  23.9895 2.0735 -15.0233
v  23.9895 2.0735 -14.5173
v  24.0424 1.7735 -15.0233
v  24.0424 1.7735 -14.5173
v  24.1947 1.5097 -15.0233
v  24.1947 1.5097 -14.5173
v  24.4280 1.3140 -15.0233
v  24.4280 1.3140 -14.5173
v  24.7142 1.2098 -15.0233
v  24.7142 1.2098 -14.5173
v  25.0188 1.2098 -15.0233
v  25.0188 1.2098 -14.5173
v  25.3050 1.3140 -15.0233
v  25.3050 1.3140 -14.5173
v  25.5384 1.5097 -15.0233
v  25.5384 1.5097 -14.5173
v  25.6907 1.7735 -15.0233
v  25.6907 1.7735 -14.5173
v  25.6907 2.3734 -21.2400
v  25.7435 2.0735 -21.2400
v  24.8665 2.0735 -21.2400
v  25.6907 2.3734 -20.7341
v  25.7435 2.0735 -20.7341
v  24.8665 2.0735 -20.7341
v  25.5384 2.6372 -21.2400
v  25.5384 2.6372 -20.7341
v  25.3050 2.8330 -21.2400
v  25.3050 2.8330 -20.7341
v  25.0188 2.9372 -21.2400
v  25.0188 2.9372 -20.7341
v  24.7142 2.9372 -21.2400
v  24.7142 2.9372 -20.7341
v  24.4280 2.8330 -21.2400
v  24.4280 2.8330 -20.7341
v  24.1947 2.6372 -21.2400
v  24.1947 2.6372 -20.7341
v  24.0424 2.3734 -21.2400
v  24.0424 2.3734 -20.7341
v  23.9895 2.0735 -21.2400
v  23.9895 2.0735 -20.7341
v  24.0424 1.7735 -21.2400
v  24.0424 1.7735 -20.7341
v  24.1947 1.5097 -21.2400
v  24.1947 1.5097 -20.7341
v  24.4280 1.3140 -21.2400
v  24.4280 1.3140 -20.7341
v  24.7142 1.2098 -21.2400
v  24.7142 1.2098 -20.7341
v  25.0188 1.2098 -21.2400
v  25.0188 1.2098 -20.7341
v  25.3050 1.3140 -21.2400
v  25.3050 1.3140 -20.7341
v  25.5384 1.5097 -21.2400
v  25.5384 1.5097 -20.7341
v  25.6907 1.7735 -21.2400
v  25.6907 1.7735 -20.7341
v  16.1525 2.3734 -15.0233
v  16.2054 2.0735 -15.0233
v  15.3284 2.0735 -15.0233
v  16.1525 2.3734 -14.5173
v  16.2054 2.0735 -14.5173
v  15.3284 2.0735 -14.5173
v  16.0002 2.6372 -15.0233
v  16.0002 2.6372 -14.5173
v  15.7669 2.8330 -15.0233
v  15.7669 2.8330 -14.5173
v  15.4807 2.9372 -15.0233
v  15.4807 2.9372 -14.5173
v  15.1761 2.9372 -15.0233
v  15.1761 2.9372 -14.5173
v  14.8899 2.8330 -15.0233
v  14.8899 2.8330 -14.5173
v  14.6565 2.6372 -15.0233
v  14.6565 2.6372 -14.5173
v  14.5042 2.3734 -15.0233
v  14.5042 2.3734 -14.5173
v  14.4513 2.0735 -15.0233
v  14.4513 2.0735 -14.5173
v  14.5042 1.7735 -15.0233
v  14.5042 1.7735 -14.5173
v  14.6565 1.5097 -15.0233
v  14.6565 1.5097 -14.5173
v  14.8899 1.3140 -15.0233
v  14.8899 1.3140 -14.5173
v  15.1761 1.2098 -15.0233
v  15.1761 1.2098 -14.5173
v  15.4807 1.2098 -15.0233
v  15.4807 1.2098 -14.5173
v  15.7669 1.3140 -15.0233
v  15.7669 1.3140 -14.5173
v  16.0002 1.5097 -15.0233
v  16.0002 1.5097 -14.5173
v  16.1525 1.7735 -15.0233
v  16.1525 1.7735 -14.5173
v  16.1525 2.3734 -21.2400
v  16.2054 2.0735 -21.2400
v  15.3284 2.0735 -21.2400
v  16.1525 2.3734 -20.7341
v  16.2054 2.0735 -20.7341
v  15.3284 2.0735 -20.7341
v  16.0002 2.6372 -21.2400
v  16.0002 2.6372 -20.7341
v  15.7669 2.8330 -21.2400
v  15.7669 2.8330 -20.7341
v  15.4807 2.9372 -21.2400
v  15.4807 2.9372 -20.7341
v  15.1761 2.9372 -21.2400
v  15.1761 2.9372 -20.7341
v  14.8899 2.8330 -21.2400
v  14.8899 2.8330 -20.7341
v  14.6565 2.6372 -21.2400
v  14.6565 2.6372 -20.7341
v  14.5042 2.3734 -21.2400
v  14.5042 2.3734 -20.7341
v  14.4513 2.0735 -21.2400
v  14.4513 2.0735 -20.7341
v  14.5042 1.7735 -21.2400
v  14.5042 1.7735 -20.7341
v  14.6565 1.5097 -21.2400
v  14.6565 1.5097 -20.7341
v  14.8899 1.3140 -21.2400
v  14.8899 1.3140 -20.7341
v  15.1761 1.2098 -21.2400
v  15.1761 1.2098 -20.7341
v  15.4807 1.2098 -21.2400
v  15.4807 1.2098 -20.7341
v  15.7669 1.3140 -21.2400
v  15.7669 1.3140 -20.7341
v  16.0002 1.5097 -21.2400
v  16.0002 1.5097 -20.7341
v  16.1525 1.7735 -21.2400
v  16.1525 1.7735 -20.7341
v  12.0362 1.7218 -14.7602
v  12.0362 8.0968 -14.7602
v  12.0362 8.0968 -20.9714
v  12.0362 1.7218 -20.9714
v  22.6985 1.7218 -14.7602
v  22.6985 8.0968 -14.7602
v  27.6896 1.7218 -20.9714
v  27.6896 4.1044 -20.9714
v  27.6896 4.1044 -14.7602
v  27.6896 1.7218 -14.7602
v  12.0362 9.8492 -20.9714
v  22.6985 9.8492 -20.9714
v  22.6985 8.0968 -20.9714
v  12.0362 9.8492 -14.7602
v  22.6985 9.8492 -14.7602
v  22.6985 1.7218 -20.9714
v  25.2008 1.7218 -20.9714
v  25.2008 1.7218 -14.7602
v  25.2008 8.0968 -20.9714
v  25.2008 8.0968 -14.7602
# 172 vertices

vn 0.0000 0.0000 -1.0000
vn 0.9848 0.1736 0.0000
vn 0.0000 -0.0000 1.0000
vn 0.8660 0.5000 0.0000
vn 0.6428 0.7660 0.0000
vn 0.3420 0.9397 0.0000
vn 0.0000 1.0000 0.0000
vn -0.3420 0.9397 0.0000
vn -0.6428 0.7660 0.0000
vn -0.8660 0.5000 0.0000
vn -0.9848 0.1736 0.0000
vn -0.9848 -0.1736 -0.0000
vn -0.8660 -0.5000 -0.0000
vn -0.6428 -0.7660 -0.0000
vn -0.3420 -0.9397 -0.0000
vn 0.0000 -1.0000 -0.0000
vn 0.3420 -0.9397 -0.0000
vn 0.6428 -0.7660 -0.0000
vn 0.8660 -0.5000 -0.0000
vn 0.9848 -0.1736 -0.0000
vn -1.0000 0.0000 0.0000
vn 1.0000 0.0000 0.0000
vn 0.8486 0.5290 0.0000
# 23 vertex normals

vt 0.7995 0.1525 0.0000
vt 0.7880 0.1544 0.0000
vt 0.7880 0.1223 0.0000
vt 0.9752 0.1720 0.0000
vt 0.9752 0.1905 0.0000
vt 0.9663 0.1905 0.0000
vt 0.9663 0.1720 0.0000
vt 0.6922 0.1525 0.0000
vt 0.7036 0.1223 0.0000
vt 0.7036 0.1544 0.0000
vt 0.8096 0.1469 0.0000
vt 0.5312 0.0540 0.0000
vt 0.5312 0.0726 0.0000
vt 0.5211 0.0726 0.0000
vt 0.5211 0.0540 0.0000
vt 0.6821 0.1469 0.0000
vt 0.8171 0.1384 0.0000
vt 0.5427 0.0540 0.0000
vt 0.5427 0.0726 0.0000
vt 0.6746 0.1384 0.0000
vt 0.8211 0.1279 0.0000
vt 0.5542 0.0540 0.0000
vt 0.5542 0.0726 0.0000
vt 0.6706 0.1279 0.0000
vt 0.8211 0.1167 0.0000
vt 0.5643 0.0540 0.0000
vt 0.5643 0.0726 0.0000
vt 0.6706 0.1167 0.0000
vt 0.8171 0.1062 0.0000
vt 0.9327 0.2802 0.0000
vt 0.9327 0.2988 0.0000
vt 0.9238 0.2988 0.0000
vt 0.9238 0.2802 0.0000
vt 0.6746 0.1062 0.0000
vt 0.8096 0.0977 0.0000
vt 0.9437 0.2802 0.0000
vt 0.9437 0.2988 0.0000
vt 0.6821 0.0977 0.0000
vt 0.7995 0.0921 0.0000
vt 0.9553 0.2802 0.0000
vt 0.9553 0.2988 0.0000
vt 0.6922 0.0921 0.0000
vt 0.7880 0.0901 0.0000
vt 0.9663 0.2802 0.0000
vt 0.9663 0.2988 0.0000
vt 0.7036 0.0901 0.0000
vt 0.7766 0.0921 0.0000
vt 0.9752 0.2802 0.0000
vt 0.9752 0.2988 0.0000
vt 0.7151 0.0921 0.0000
vt 0.7665 0.0977 0.0000
vt 0.9339 0.0637 0.0000
vt 0.9339 0.0823 0.0000
vt 0.9238 0.0823 0.0000
vt 0.9238 0.0637 0.0000
vt 0.7252 0.0977 0.0000
vt 0.7590 0.1062 0.0000
vt 0.9454 0.0637 0.0000
vt 0.9454 0.0823 0.0000
vt 0.7327 0.1062 0.0000
vt 0.7550 0.1167 0.0000
vt 0.9568 0.0637 0.0000
vt 0.9568 0.0823 0.0000
vt 0.7367 0.1167 0.0000
vt 0.7550 0.1279 0.0000
vt 0.9669 0.0637 0.0000
vt 0.9669 0.0823 0.0000
vt 0.7367 0.1279 0.0000
vt 0.7590 0.1384 0.0000
vt 0.9327 0.1720 0.0000
vt 0.9327 0.1905 0.0000
vt 0.9238 0.1905 0.0000
vt 0.9238 0.1720 0.0000
vt 0.7327 0.1384 0.0000
vt 0.7665 0.1469 0.0000
vt 0.9437 0.1720 0.0000
vt 0.9437 0.1905 0.0000
vt 0.7252 0.1469 0.0000
vt 0.7766 0.1525 0.0000
vt 0.9553 0.1720 0.0000
vt 0.9553 0.1905 0.0000
vt 0.7151 0.1525 0.0000
vt 0.9683 0.7440 0.0000
vt 0.9568 0.7460 0.0000
vt 0.9568 0.7138 0.0000
vt 0.9752 0.2081 0.0000
vt 0.9752 0.2266 0.0000
vt 0.9663 0.2266 0.0000
vt 0.9663 0.2081 0.0000
vt 0.9454 0.6622 0.0000
vt 0.9568 0.6319 0.0000
vt 0.9568 0.6641 0.0000
vt 0.9784 0.7384 0.0000
vt 0.6192 0.1359 0.0000
vt 0.6192 0.1544 0.0000
vt 0.6091 0.1544 0.0000
vt 0.6091 0.1359 0.0000
vt 0.9353 0.6566 0.0000
vt 0.9859 0.7299 0.0000
vt 0.6307 0.1359 0.0000
vt 0.6307 0.1544 0.0000
vt 0.9278 0.6480 0.0000
vt 0.9899 0.7194 0.0000
vt 0.6422 0.1359 0.0000
vt 0.6422 0.1544 0.0000
vt 0.9238 0.6375 0.0000
vt 0.9899 0.7082 0.0000
vt 0.6523 0.1359 0.0000
vt 0.6523 0.1544 0.0000
vt 0.9238 0.6264 0.0000
vt 0.9859 0.6977 0.0000
vt 0.9327 0.3524 0.0000
vt 0.9327 0.3709 0.0000
vt 0.9238 0.3709 0.0000
vt 0.9238 0.3524 0.0000
vt 0.9278 0.6159 0.0000
vt 0.9784 0.6892 0.0000
vt 0.9437 0.3524 0.0000
vt 0.9437 0.3709 0.0000
vt 0.9353 0.6073 0.0000
vt 0.9683 0.6836 0.0000
vt 0.9553 0.3524 0.0000
vt 0.9553 0.3709 0.0000
vt 0.9454 0.6017 0.0000
vt 0.9568 0.6816 0.0000
vt 0.9663 0.3524 0.0000
vt 0.9663 0.3709 0.0000
vt 0.9568 0.5998 0.0000
vt 0.9454 0.6836 0.0000
vt 0.9752 0.3524 0.0000
vt 0.9752 0.3709 0.0000
vt 0.9683 0.6017 0.0000
vt 0.9353 0.6892 0.0000
vt 0.6192 0.0637 0.0000
vt 0.6192 0.0823 0.0000
vt 0.6091 0.0823 0.0000
vt 0.6091 0.0637 0.0000
vt 0.9784 0.6073 0.0000
vt 0.9278 0.6977 0.0000
vt 0.6307 0.0637 0.0000
vt 0.6307 0.0823 0.0000
vt 0.9859 0.6159 0.0000
vt 0.9238 0.7082 0.0000
vt 0.6422 0.0637 0.0000
vt 0.6422 0.0823 0.0000
vt 0.9899 0.6264 0.0000
vt 0.9238 0.7194 0.0000
vt 0.6523 0.0637 0.0000
vt 0.6523 0.0823 0.0000
vt 0.9899 0.6375 0.0000
vt 0.9278 0.7299 0.0000
vt 0.9327 0.2081 0.0000
vt 0.9327 0.2266 0.0000
vt 0.9238 0.2266 0.0000
vt 0.9238 0.2081 0.0000
vt 0.9859 0.6480 0.0000
vt 0.9353 0.7384 0.0000
vt 0.9437 0.2081 0.0000
vt 0.9437 0.2266 0.0000
vt 0.9784 0.6566 0.0000
vt 0.9454 0.7440 0.0000
vt 0.9553 0.2081 0.0000
vt 0.9553 0.2266 0.0000
vt 0.9683 0.6622 0.0000
vt 0.9683 0.5803 0.0000
vt 0.9568 0.5823 0.0000
vt 0.9568 0.5501 0.0000
vt 0.9752 0.1359 0.0000
vt 0.9752 0.1544 0.0000
vt 0.9663 0.1544 0.0000
vt 0.9663 0.1359 0.0000
vt 0.9454 0.4985 0.0000
vt 0.9568 0.4683 0.0000
vt 0.9568 0.5004 0.0000
vt 0.9784 0.5747 0.0000
vt 0.7651 0.0540 0.0000
vt 0.7651 0.0726 0.0000
vt 0.7550 0.0726 0.0000
vt 0.7550 0.0540 0.0000
vt 0.9353 0.4929 0.0000
vt 0.9859 0.5662 0.0000
vt 0.7766 0.0540 0.0000
vt 0.7766 0.0726 0.0000
vt 0.9278 0.4843 0.0000
vt 0.9899 0.5557 0.0000
vt 0.7880 0.0540 0.0000
vt 0.7880 0.0726 0.0000
vt 0.9238 0.4738 0.0000
vt 0.9899 0.5445 0.0000
vt 0.7981 0.0540 0.0000
vt 0.7981 0.0726 0.0000
vt 0.9238 0.4627 0.0000
vt 0.9859 0.5340 0.0000
vt 0.9327 0.3885 0.0000
vt 0.9327 0.4070 0.0000
vt 0.9238 0.4070 0.0000
vt 0.9238 0.3885 0.0000
vt 0.9278 0.4522 0.0000
vt 0.9784 0.5255 0.0000
vt 0.9437 0.3885 0.0000
vt 0.9437 0.4070 0.0000
vt 0.9353 0.4436 0.0000
vt 0.9683 0.5199 0.0000
vt 0.9553 0.3885 0.0000
vt 0.9553 0.4070 0.0000
vt 0.9454 0.4380 0.0000
vt 0.9568 0.5179 0.0000
vt 0.9663 0.3885 0.0000
vt 0.9663 0.4070 0.0000
vt 0.9568 0.4361 0.0000
vt 0.9454 0.5199 0.0000
vt 0.9752 0.3885 0.0000
vt 0.9752 0.4070 0.0000
vt 0.9683 0.4380 0.0000
vt 0.9353 0.5255 0.0000
vt 0.7036 0.0540 0.0000
vt 0.7036 0.0726 0.0000
vt 0.6935 0.0726 0.0000
vt 0.6935 0.0540 0.0000
vt 0.9784 0.4436 0.0000
vt 0.9278 0.5340 0.0000
vt 0.7151 0.0540 0.0000
vt 0.7151 0.0726 0.0000
vt 0.9859 0.4522 0.0000
vt 0.9238 0.5445 0.0000
vt 0.7266 0.0540 0.0000
vt 0.7266 0.0726 0.0000
vt 0.9899 0.4627 0.0000
vt 0.9238 0.5557 0.0000
vt 0.7367 0.0540 0.0000
vt 0.7367 0.0726 0.0000
vt 0.9899 0.4738 0.0000
vt 0.9278 0.5662 0.0000
vt 0.9327 0.1359 0.0000
vt 0.9327 0.1544 0.0000
vt 0.9238 0.1544 0.0000
vt 0.9238 0.1359 0.0000
vt 0.9859 0.4843 0.0000
vt 0.9353 0.5747 0.0000
vt 0.9437 0.1359 0.0000
vt 0.9437 0.1544 0.0000
vt 0.9784 0.4929 0.0000
vt 0.9454 0.5803 0.0000
vt 0.9553 0.1359 0.0000
vt 0.9553 0.1544 0.0000
vt 0.9683 0.4985 0.0000
vt 0.5657 0.1525 0.0000
vt 0.5542 0.1544 0.0000
vt 0.5542 0.1223 0.0000
vt 0.9752 0.3163 0.0000
vt 0.9752 0.3348 0.0000
vt 0.9663 0.3348 0.0000
vt 0.9663 0.3163 0.0000
vt 0.8610 0.1525 0.0000
vt 0.8724 0.1223 0.0000
vt 0.8724 0.1544 0.0000
vt 0.5758 0.1469 0.0000
vt 0.9339 0.0998 0.0000
vt 0.9339 0.1184 0.0000
vt 0.9238 0.1184 0.0000
vt 0.9238 0.0998 0.0000
vt 0.8509 0.1469 0.0000
vt 0.5833 0.1384 0.0000
vt 0.9454 0.0998 0.0000
vt 0.9454 0.1184 0.0000
vt 0.8434 0.1384 0.0000
vt 0.5872 0.1279 0.0000
vt 0.9568 0.0998 0.0000
vt 0.9568 0.1184 0.0000
vt 0.8394 0.1279 0.0000
vt 0.5872 0.1167 0.0000
vt 0.9669 0.0998 0.0000
vt 0.9669 0.1184 0.0000
vt 0.8394 0.1167 0.0000
vt 0.5833 0.1062 0.0000
vt 0.9327 0.2441 0.0000
vt 0.9327 0.2627 0.0000
vt 0.9238 0.2627 0.0000
vt 0.9238 0.2441 0.0000
vt 0.8434 0.1062 0.0000
vt 0.5758 0.0977 0.0000
vt 0.9437 0.2441 0.0000
vt 0.9437 0.2627 0.0000
vt 0.8509 0.0977 0.0000
vt 0.5657 0.0921 0.0000
vt 0.9553 0.2441 0.0000
vt 0.9553 0.2627 0.0000
vt 0.8610 0.0921 0.0000
vt 0.5542 0.0901 0.0000
vt 0.9663 0.2441 0.0000
vt 0.9663 0.2627 0.0000
vt 0.8724 0.0901 0.0000
vt 0.5427 0.0921 0.0000
vt 0.9752 0.2441 0.0000
vt 0.9752 0.2627 0.0000
vt 0.8839 0.0921 0.0000
vt 0.5326 0.0977 0.0000
vt 0.6192 0.0998 0.0000
vt 0.6192 0.1184 0.0000
vt 0.6091 0.1184 0.0000
vt 0.6091 0.0998 0.0000
vt 0.8940 0.0977 0.0000
vt 0.5251 0.1062 0.0000
vt 0.6307 0.0998 0.0000
vt 0.6307 0.1184 0.0000
vt 0.9015 0.1062 0.0000
vt 0.5211 0.1167 0.0000
vt 0.6422 0.0998 0.0000
vt 0.6422 0.1184 0.0000
vt 0.9055 0.1167 0.0000
vt 0.5211 0.1279 0.0000
vt 0.6523 0.0998 0.0000
vt 0.6523 0.1184 0.0000
vt 0.9055 0.1279 0.0000
vt 0.5251 0.1384 0.0000
vt 0.9327 0.3163 0.0000
vt 0.9327 0.3348 0.0000
vt 0.9238 0.3348 0.0000
vt 0.9238 0.3163 0.0000
vt 0.9015 0.1384 0.0000
vt 0.5326 0.1469 0.0000
vt 0.9437 0.3163 0.0000
vt 0.9437 0.3348 0.0000
vt 0.8940 0.1469 0.0000
vt 0.5427 0.1525 0.0000
vt 0.9553 0.3163 0.0000
vt 0.9553 0.3348 0.0000
vt 0.8839 0.1525 0.0000
vt 0.5762 0.3997 0.0000
vt 0.3322 0.3997 0.0000
vt 0.3322 0.1720 0.0000
vt 0.5762 0.1720 0.0000
vt 0.3202 0.8082 0.0000
vt 0.0762 0.8082 0.0000
vt 0.0762 0.4173 0.0000
vt 0.3202 0.4173 0.0000
vt 0.6447 0.1720 0.0000
vt 0.7324 0.1720 0.0000
vt 0.7324 0.3997 0.0000
vt 0.6447 0.3997 0.0000
vt 0.5824 0.4173 0.0000
vt 0.6495 0.4173 0.0000
vt 0.6495 0.8082 0.0000
vt 0.5824 0.8082 0.0000
vt 0.2468 0.0088 0.0000
vt 0.2468 0.3997 0.0000
vt 0.0091 0.3997 0.0000
vt 0.0091 0.0088 0.0000
vt 0.6678 0.8082 0.0000
vt 0.6678 0.4173 0.0000
vt 0.9055 0.4173 0.0000
vt 0.9055 0.8082 0.0000
vt 0.2651 0.3997 0.0000
vt 0.2651 0.1720 0.0000
vt 0.0091 0.8082 0.0000
vt 0.0091 0.4173 0.0000
vt 0.9238 0.7635 0.0000
vt 0.9909 0.7635 0.0000
vt 0.9909 0.9912 0.0000
vt 0.9238 0.9912 0.0000
vt 0.3385 0.8082 0.0000
vt 0.3385 0.4173 0.0000
vt 0.9055 0.9000 0.0000
vt 0.6678 0.9000 0.0000
vt 0.5824 0.9000 0.0000
vt 0.3385 0.9000 0.0000
vt 0.9055 0.3997 0.0000
vt 0.9055 0.1720 0.0000
vt 0.3202 0.9000 0.0000
vt 0.3202 0.9912 0.0000
vt 0.2290 0.9912 0.0000
vt 0.0762 0.9000 0.0000
vt 0.9055 0.9912 0.0000
vt 0.6678 0.9912 0.0000
vt 0.4297 0.9912 0.0000
vt 0.3385 0.9912 0.0000
vt 0.2651 0.1544 0.0000
vt 0.2651 0.0627 0.0000
vt 0.5028 0.0627 0.0000
vt 0.5028 0.1544 0.0000
# 380 texture coords

o Car_09
g Car_09
s off
f 1/1/1 2/2/1 3/3/1 
f 1/4/2 4/5/2 5/6/2 
f 5/6/2 2/7/2 1/4/2 
f 4/8/3 6/9/3 5/10/3 
f 7/11/1 1/1/1 3/3/1 
f 7/12/4 8/13/4 4/14/4 
f 4/14/4 1/15/4 7/12/4 
f 8/16/3 6/9/3 4/8/3 
f 9/17/1 7/11/1 3/3/1 
f 9/18/5 10/19/5 8/13/5 
f 8/13/5 7/12/5 9/18/5 
f 10/20/3 6/9/3 8/16/3 
f 11/21/1 9/17/1 3/3/1 
f 11/22/6 12/23/6 10/19/6 
f 10/19/6 9/18/6 11/22/6 
f 12/24/3 6/9/3 10/20/3 
f 13/25/1 11/21/1 3/3/1 
f 13/26/7 14/27/7 12/23/7 
f 12/23/7 11/22/7 13/26/7 
f 14/28/3 6/9/3 12/24/3 
f 15/29/1 13/25/1 3/3/1 
f 15/30/8 16/31/8 14/32/8 
f 14/32/8 13/33/8 15/30/8 
f 16/34/3 6/9/3 14/28/3 
f 17/35/1 15/29/1 3/3/1 
f 17/36/9 18/37/9 16/31/9 
f 16/31/9 15/30/9 17/36/9 
f 18/38/3 6/9/3 16/34/3 
f 19/39/1 17/35/1 3/3/1 
f 19/40/10 20/41/10 18/37/10 
f 18/37/10 17/36/10 19/40/10 
f 20/42/3 6/9/3 18/38/3 
f 21/43/1 19/39/1 3/3/1 
f 21/44/11 22/45/11 20/41/11 
f 20/41/11 19/40/11 21/44/11 
f 22/46/3 6/9/3 20/42/3 
f 23/47/1 21/43/1 3/3/1 
f 23/48/12 24/49/12 22/45/12 
f 22/45/12 21/44/12 23/48/12 
f 24/50/3 6/9/3 22/46/3 
f 25/51/1 23/47/1 3/3/1 
f 25/52/13 26/53/13 24/54/13 
f 24/54/13 23/55/13 25/52/13 
f 26/56/3 6/9/3 24/50/3 
f 27/57/1 25/51/1 3/3/1 
f 27/58/14 28/59/14 26/53/14 
f 26/53/14 25/52/14 27/58/14 
f 28/60/3 6/9/3 26/56/3 
f 29/61/1 27/57/1 3/3/1 
f 29/62/15 30/63/15 28/59/15 
f 28/59/15 27/58/15 29/62/15 
f 30/64/3 6/9/3 28/60/3 
f 31/65/1 29/61/1 3/3/1 
f 31/66/16 32/67/16 30/63/16 
f 30/63/16 29/62/16 31/66/16 
f 32/68/3 6/9/3 30/64/3 
f 33/69/1 31/65/1 3/3/1 
f 33/70/17 34/71/17 32/72/17 
f 32/72/17 31/73/17 33/70/17 
f 34/74/3 6/9/3 32/68/3 
f 35/75/1 33/69/1 3/3/1 
f 35/76/18 36/77/18 34/71/18 
f 34/71/18 33/70/18 35/76/18 
f 36/78/3 6/9/3 34/74/3 
f 37/79/1 35/75/1 3/3/1 
f 37/80/19 38/81/19 36/77/19 
f 36/77/19 35/76/19 37/80/19 
f 38/82/3 6/9/3 36/78/3 
f 2/2/1 37/79/1 3/3/1 
f 2/7/20 5/6/20 38/81/20 
f 38/81/20 37/80/20 2/7/20 
f 5/10/3 6/9/3 38/82/3 
f 39/83/1 40/84/1 41/85/1 
f 39/86/2 42/87/2 43/88/2 
f 43/88/2 40/89/2 39/86/2 
f 42/90/3 44/91/3 43/92/3 
f 45/93/1 39/83/1 41/85/1 
f 45/94/4 46/95/4 42/96/4 
f 42/96/4 39/97/4 45/94/4 
f 46/98/3 44/91/3 42/90/3 
f 47/99/1 45/93/1 41/85/1 
f 47/100/5 48/101/5 46/95/5 
f 46/95/5 45/94/5 47/100/5 
f 48/102/3 44/91/3 46/98/3 
f 49/103/1 47/99/1 41/85/1 
f 49/104/6 50/105/6 48/101/6 
f 48/101/6 47/100/6 49/104/6 
f 50/106/3 44/91/3 48/102/3 
f 51/107/1 49/103/1 41/85/1 
f 51/108/7 52/109/7 50/105/7 
f 50/105/7 49/104/7 51/108/7 
f 52/110/3 44/91/3 50/106/3 
f 53/111/1 51/107/1 41/85/1 
f 53/112/8 54/113/8 52/114/8 
f 52/114/8 51/115/8 53/112/8 
f 54/116/3 44/91/3 52/110/3 
f 55/117/1 53/111/1 41/85/1 
f 55/118/9 56/119/9 54/113/9 
f 54/113/9 53/112/9 55/118/9 
f 56/120/3 44/91/3 54/116/3 
f 57/121/1 55/117/1 41/85/1 
f 57/122/10 58/123/10 56/119/10 
f 56/119/10 55/118/10 57/122/10 
f 58/124/3 44/91/3 56/120/3 
f 59/125/1 57/121/1 41/85/1 
f 59/126/11 60/127/11 58/123/11 
f 58/123/11 57/122/11 59/126/11 
f 60/128/3 44/91/3 58/124/3 
f 61/129/1 59/125/1 41/85/1 
f 61/130/12 62/131/12 60/127/12 
f 60/127/12 59/126/12 61/130/12 
f 62/132/3 44/91/3 60/128/3 
f 63/133/1 61/129/1 41/85/1 
f 63/134/13 64/135/13 62/136/13 
f 62/136/13 61/137/13 63/134/13 
f 64/138/3 44/91/3 62/132/3 
f 65/139/1 63/133/1 41/85/1 
f 65/140/14 66/141/14 64/135/14 
f 64/135/14 63/134/14 65/140/14 
f 66/142/3 44/91/3 64/138/3 
f 67/143/1 65/139/1 41/85/1 
f 67/144/15 68/145/15 66/141/15 
f 66/141/15 65/140/15 67/144/15 
f 68/146/3 44/91/3 66/142/3 
f 69/147/1 67/143/1 41/85/1 
f 69/148/16 70/149/16 68/145/16 
f 68/145/16 67/144/16 69/148/16 
f 70/150/3 44/91/3 68/146/3 
f 71/151/1 69/147/1 41/85/1 
f 71/152/17 72/153/17 70/154/17 
f 70/154/17 69/155/17 71/152/17 
f 72/156/3 44/91/3 70/150/3 
f 73/157/1 71/151/1 41/85/1 
f 73/158/18 74/159/18 72/153/18 
f 72/153/18 71/152/18 73/158/18 
f 74/160/3 44/91/3 72/156/3 
f 75/161/1 73/157/1 41/85/1 
f 75/162/19 76/163/19 74/159/19 
f 74/159/19 73/158/19 75/162/19 
f 76/164/3 44/91/3 74/160/3 
f 40/84/1 75/161/1 41/85/1 
f 40/89/20 43/88/20 76/163/20 
f 76/163/20 75/162/20 40/89/20 
f 43/92/3 44/91/3 76/164/3 
f 77/165/1 78/166/1 79/167/1 
f 77/168/2 80/169/2 81/170/2 
f 81/170/2 78/171/2 77/168/2 
f 80/172/3 82/173/3 81/174/3 
f 83/175/1 77/165/1 79/167/1 
f 83/176/4 84/177/4 80/178/4 
f 80/178/4 77/179/4 83/176/4 
f 84/180/3 82/173/3 80/172/3 
f 85/181/1 83/175/1 79/167/1 
f 85/182/5 86/183/5 84/177/5 
f 84/177/5 83/176/5 85/182/5 
f 86/184/3 82/173/3 84/180/3 
f 87/185/1 85/181/1 79/167/1 
f 87/186/6 88/187/6 86/183/6 
f 86/183/6 85/182/6 87/186/6 
f 88/188/3 82/173/3 86/184/3 
f 89/189/1 87/185/1 79/167/1 
f 89/190/7 90/191/7 88/187/7 
f 88/187/7 87/186/7 89/190/7 
f 90/192/3 82/173/3 88/188/3 
f 91/193/1 89/189/1 79/167/1 
f 91/194/8 92/195/8 90/196/8 
f 90/196/8 89/197/8 91/194/8 
f 92/198/3 82/173/3 90/192/3 
f 93/199/1 91/193/1 79/167/1 
f 93/200/9 94/201/9 92/195/9 
f 92/195/9 91/194/9 93/200/9 
f 94/202/3 82/173/3 92/198/3 
f 95/203/1 93/199/1 79/167/1 
f 95/204/10 96/205/10 94/201/10 
f 94/201/10 93/200/10 95/204/10 
f 96/206/3 82/173/3 94/202/3 
f 97/207/1 95/203/1 79/167/1 
f 97/208/11 98/209/11 96/205/11 
f 96/205/11 95/204/11 97/208/11 
f 98/210/3 82/173/3 96/206/3 
f 99/211/1 97/207/1 79/167/1 
f 99/212/12 100/213/12 98/209/12 
f 98/209/12 97/208/12 99/212/12 
f 100/214/3 82/173/3 98/210/3 
f 101/215/1 99/211/1 79/167/1 
f 101/216/13 102/217/13 100/218/13 
f 100/218/13 99/219/13 101/216/13 
f 102/220/3 82/173/3 100/214/3 
f 103/221/1 101/215/1 79/167/1 
f 103/222/14 104/223/14 102/217/14 
f 102/217/14 101/216/14 103/222/14 
f 104/224/3 82/173/3 102/220/3 
f 105/225/1 103/221/1 79/167/1 
f 105/226/15 106/227/15 104/223/15 
f 104/223/15 103/222/15 105/226/15 
f 106/228/3 82/173/3 104/224/3 
f 107/229/1 105/225/1 79/167/1 
f 107/230/16 108/231/16 106/227/16 
f 106/227/16 105/226/16 107/230/16 
f 108/232/3 82/173/3 106/228/3 
f 109/233/1 107/229/1 79/167/1 
f 109/234/17 110/235/17 108/236/17 
f 108/236/17 107/237/17 109/234/17 
f 110/238/3 82/173/3 108/232/3 
f 111/239/1 109/233/1 79/167/1 
f 111/240/18 112/241/18 110/235/18 
f 110/235/18 109/234/18 111/240/18 
f 112/242/3 82/173/3 110/238/3 
f 113/243/1 111/239/1 79/167/1 
f 113/244/19 114/245/19 112/241/19 
f 112/241/19 111/240/19 113/244/19 
f 114/246/3 82/173/3 112/242/3 
f 78/166/1 113/243/1 79/167/1 
f 78/171/20 81/170/20 114/245/20 
f 114/245/20 113/244/20 78/171/20 
f 81/174/3 82/173/3 114/246/3 
f 115/247/1 116/248/1 117/249/1 
f 115/250/2 118/251/2 119/252/2 
f 119/252/2 116/253/2 115/250/2 
f 118/254/3 120/255/3 119/256/3 
f 121/257/1 115/247/1 117/249/1 
f 121/258/4 122/259/4 118/260/4 
f 118/260/4 115/261/4 121/258/4 
f 122/262/3 120/255/3 118/254/3 
f 123/263/1 121/257/1 117/249/1 
f 123/264/5 124/265/5 122/259/5 
f 122/259/5 121/258/5 123/264/5 
f 124/266/3 120/255/3 122/262/3 
f 125/267/1 123/263/1 117/249/1 
f 125/268/6 126/269/6 124/265/6 
f 124/265/6 123/264/6 125/268/6 
f 126/270/3 120/255/3 124/266/3 
f 127/271/1 125/267/1 117/249/1 
f 127/272/7 128/273/7 126/269/7 
f 126/269/7 125/268/7 127/272/7 
f 128/274/3 120/255/3 126/270/3 
f 129/275/1 127/271/1 117/249/1 
f 129/276/8 130/277/8 128/278/8 
f 128/278/8 127/279/8 129/276/8 
f 130/280/3 120/255/3 128/274/3 
f 131/281/1 129/275/1 117/249/1 
f 131/282/9 132/283/9 130/277/9 
f 130/277/9 129/276/9 131/282/9 
f 132/284/3 120/255/3 130/280/3 
f 133/285/1 131/281/1 117/249/1 
f 133/286/10 134/287/10 132/283/10 
f 132/283/10 131/282/10 133/286/10 
f 134/288/3 120/255/3 132/284/3 
f 135/289/1 133/285/1 117/249/1 
f 135/290/11 136/291/11 134/287/11 
f 134/287/11 133/286/11 135/290/11 
f 136/292/3 120/255/3 134/288/3 
f 137/293/1 135/289/1 117/249/1 
f 137/294/12 138/295/12 136/291/12 
f 136/291/12 135/290/12 137/294/12 
f 138/296/3 120/255/3 136/292/3 
f 139/297/1 137/293/1 117/249/1 
f 139/298/13 140/299/13 138/300/13 
f 138/300/13 137/301/13 139/298/13 
f 140/302/3 120/255/3 138/296/3 
f 141/303/1 139/297/1 117/249/1 
f 141/304/14 142/305/14 140/299/14 
f 140/299/14 139/298/14 141/304/14 
f 142/306/3 120/255/3 140/302/3 
f 143/307/1 141/303/1 117/249/1 
f 143/308/15 144/309/15 142/305/15 
f 142/305/15 141/304/15 143/308/15 
f 144/310/3 120/255/3 142/306/3 
f 145/311/1 143/307/1 117/249/1 
f 145/312/16 146/313/16 144/309/16 
f 144/309/16 143/308/16 145/312/16 
f 146/314/3 120/255/3 144/310/3 
f 147/315/1 145/311/1 117/249/1 
f 147/316/17 148/317/17 146/318/17 
f 146/318/17 145/319/17 147/316/17 
f 148/320/3 120/255/3 146/314/3 
f 149/321/1 147/315/1 117/249/1 
f 149/322/18 150/323/18 148/317/18 
f 148/317/18 147/316/18 149/322/18 
f 150/324/3 120/255/3 148/320/3 
f 151/325/1 149/321/1 117/249/1 
f 151/326/19 152/327/19 150/323/19 
f 150/323/19 149/322/19 151/326/19 
f 152/328/3 120/255/3 150/324/3 
f 116/248/1 151/325/1 117/249/1 
f 116/253/20 119/252/20 152/327/20 
f 152/327/20 151/326/20 116/253/20 
f 119/256/3 120/255/3 152/328/3 
f 153/329/21 154/330/21 155/331/21 
f 155/331/21 156/332/21 153/329/21 
f 157/333/3 158/334/3 154/335/3 
f 154/335/3 153/336/3 157/333/3 
f 159/337/22 160/338/22 161/339/22 
f 161/339/22 162/340/22 159/337/22 
f 155/341/1 163/342/1 164/343/1 
f 164/343/1 165/344/1 155/341/1 
f 166/345/7 167/346/7 164/347/7 
f 164/347/7 163/348/7 166/345/7 
f 157/349/16 153/350/16 156/351/16 
f 156/351/16 168/352/16 157/349/16 
f 154/330/21 166/353/21 163/354/21 
f 163/354/21 155/331/21 154/330/21 
f 158/334/3 167/355/3 166/356/3 
f 166/356/3 154/335/3 158/334/3 
f 165/357/22 164/358/22 167/359/22 
f 167/359/22 158/360/22 165/357/22 
f 165/344/1 168/361/1 156/362/1 
f 156/362/1 155/341/1 165/344/1 
f 168/352/16 169/363/16 170/364/16 
f 170/364/16 157/349/16 168/352/16 
f 165/344/1 171/365/1 169/366/1 
f 169/366/1 168/361/1 165/344/1 
f 172/367/23 161/339/23 160/338/23 
f 160/338/23 171/368/23 172/367/23 
f 170/369/3 162/370/3 161/371/3 
f 161/371/3 172/372/3 170/369/3 
f 169/363/16 159/373/16 162/374/16 
f 162/374/16 170/364/16 169/363/16 
f 171/365/1 160/375/1 159/376/1 
f 159/376/1 169/366/1 171/365/1 
f 171/377/7 165/378/7 158/379/7 
f 158/379/7 172/380/7 171/377/7 
f 172/372/3 158/334/3 157/333/3 
f 157/333/3 170/369/3 172/372/3 
# 324 faces

